<svg width="350" height="350" viewBox="0 0 350 350" fill="none" xmlns="http://www.w3.org/2000/svg">
<rect width="350" height="350" rx="100" fill="url(#paint0_linear_96_2139)"/>
<g filter="url(#filter0_d_96_2139)">
<path fill-rule="evenodd" clip-rule="evenodd" d="M214.977 97.8261C215.095 96.5558 215.155 95.2798 215.155 94C215.155 71.9087 197.246 54 175.155 54C153.064 54 135.155 71.9087 135.155 94C135.155 95.2798 135.215 96.5558 135.332 97.8261L135.987 104.9C136.11 106.419 135.285 106.896 134.03 106.03L128.231 101.926C127.19 101.189 126.115 100.499 125.007 99.8589C105.875 88.8135 81.4117 95.3687 70.3658 114.5C59.3199 133.632 65.875 158.096 85.0069 169.141C86.1149 169.781 87.2496 170.367 88.4082 170.9L94.8616 173.871C96.2389 174.524 96.2389 175.476 94.8616 176.129L88.4082 179.1C87.2496 179.633 86.1149 180.219 85.0069 180.859C65.875 191.905 59.3199 216.369 70.3658 235.5C81.4117 254.632 105.875 261.187 125.007 250.141C126.115 249.501 127.19 248.811 128.231 248.074L134.03 243.97C135.285 243.104 136.11 243.581 135.987 245.1L135.332 252.174C135.215 253.444 135.155 254.72 135.155 256C135.155 278.091 153.064 296 175.155 296C197.246 296 215.155 278.091 215.155 256C215.155 254.72 215.095 253.444 214.977 252.174L214.323 245.1C214.2 243.581 215.025 243.104 216.279 243.97L222.078 248.074C223.12 248.811 224.194 249.501 225.303 250.141C244.435 261.187 268.898 254.631 279.944 235.5C290.99 216.368 284.435 191.904 265.303 180.859C264.195 180.219 263.06 179.633 261.902 179.1L255.448 176.129C254.071 175.476 254.071 174.524 255.448 173.871L261.902 170.9C263.06 170.367 264.195 169.781 265.303 169.141C284.435 158.095 290.99 133.631 279.944 114.5C268.898 95.3682 244.435 88.8135 225.303 99.8589C224.194 100.499 223.12 101.189 222.078 101.926L216.279 106.03C215.025 106.896 214.2 106.419 214.323 104.9L214.977 97.8261ZM158 147C158 144.668 158 143.502 157.578 142.598C157.131 141.639 156.361 140.869 155.402 140.422C154.498 140 153.332 140 151 140C148.668 140 147.502 140 146.598 140.422C145.639 140.869 144.869 141.639 144.422 142.598C144 143.502 144 144.668 144 147V203C144 205.332 144 206.498 144.422 207.402C144.869 208.361 145.639 209.131 146.598 209.578C147.502 210 148.668 210 151 210C153.332 210 154.498 210 155.402 209.578C156.361 209.131 157.131 208.361 157.578 207.402C158 206.498 158 205.332 158 203V147ZM182 162C182 159.668 182 158.502 181.578 157.598C181.131 156.639 180.361 155.869 179.402 155.422C178.498 155 177.332 155 175 155C172.668 155 171.502 155 170.598 155.422C169.639 155.869 168.869 156.639 168.422 157.598C168 158.502 168 159.668 168 162V188C168 190.332 168 191.498 168.422 192.402C168.869 193.361 169.639 194.131 170.598 194.578C171.502 195 172.668 195 175 195C177.332 195 178.498 195 179.402 194.578C180.361 194.131 181.131 193.361 181.578 192.402C182 191.498 182 190.332 182 188V162ZM119 162C119 159.668 119 158.502 119.422 157.598C119.869 156.639 120.639 155.869 121.598 155.422C122.502 155 123.668 155 126 155C128.332 155 129.498 155 130.402 155.422C131.361 155.869 132.131 156.639 132.578 157.598C133 158.502 133 159.668 133 162V188C133 190.332 133 191.498 132.578 192.402C132.131 193.361 131.361 194.131 130.402 194.578C129.498 195 128.332 195 126 195C123.668 195 122.502 195 121.598 194.578C120.639 194.131 119.869 193.361 119.422 192.402C119 191.498 119 190.332 119 188V162ZM206 147C206 144.668 206 143.502 205.578 142.598C205.131 141.639 204.361 140.869 203.402 140.422C202.498 140 201.332 140 199 140C196.668 140 195.502 140 194.598 140.422C193.639 140.869 192.869 141.639 192.422 142.598C192 143.502 192 144.668 192 147V203C192 205.332 192 206.498 192.422 207.402C192.869 208.361 193.639 209.131 194.598 209.578C195.502 210 196.668 210 199 210C201.332 210 202.498 210 203.402 209.578C204.361 209.131 205.131 208.361 205.578 207.402C206 206.498 206 205.332 206 203V147ZM216 162C216 159.668 216 158.502 216.422 157.598C216.869 156.639 217.639 155.869 218.598 155.422C219.502 155 220.668 155 223 155C225.332 155 226.498 155 227.402 155.422C228.361 155.869 229.131 156.639 229.578 157.598C230 158.502 230 159.668 230 162V188C230 190.332 230 191.498 229.578 192.402C229.131 193.361 228.361 194.131 227.402 194.578C226.498 195 225.332 195 223 195C220.668 195 219.502 195 218.598 194.578C217.639 194.131 216.869 193.361 216.422 192.402C216 191.498 216 190.332 216 188V162Z" fill="white"/>
</g>
<defs>
<filter id="filter0_d_96_2139" x="50" y="39" width="250.31" height="272" filterUnits="userSpaceOnUse" color-interpolation-filters="sRGB">
<feFlood flood-opacity="0" result="BackgroundImageFix"/>
<feColorMatrix in="SourceAlpha" type="matrix" values="0 0 0 0 0 0 0 0 0 0 0 0 0 0 0 0 0 0 127 0" result="hardAlpha"/>
<feOffset/>
<feGaussianBlur stdDeviation="7.5"/>
<feComposite in2="hardAlpha" operator="out"/>
<feColorMatrix type="matrix" values="0 0 0 0 0 0 0 0 0 0 0 0 0 0 0 0 0 0 0.25 0"/>
<feBlend mode="normal" in2="BackgroundImageFix" result="effect1_dropShadow_96_2139"/>
<feBlend mode="normal" in="SourceGraphic" in2="effect1_dropShadow_96_2139" result="shape"/>
</filter>
<linearGradient id="paint0_linear_96_2139" x1="350" y1="0" x2="4.17233e-05" y2="350" gradientUnits="userSpaceOnUse">
<stop stop-color="#367D7D"/>
<stop offset="1" stop-color="#265959"/>
</linearGradient>
</defs>
</svg>
