<svg width="60" height="60" viewBox="0 0 60 60" fill="none" xmlns="http://www.w3.org/2000/svg">
    <path
        d="M37 12.5C37 7.55025 37 5.07538 38.5377 3.53769C40.0754 2 42.5503 2 47.5 2C52.4497 2 54.9246 2 56.4623 3.53769C58 5.07538 58 7.55025 58 12.5V47.5C58 52.4497 58 54.9246 56.4623 56.4623C54.9246 58 52.4497 58 47.5 58C42.5503 58 40.0754 58 38.5377 56.4623C37 54.9246 37 52.4497 37 47.5V12.5Z"
        fill="#F1F4F3" />
    <path
        d="M2 12.5C2 7.55025 2 5.07538 3.53769 3.53769C5.07538 2 7.55025 2 12.5 2C17.4497 2 19.9246 2 21.4623 3.53769C23 5.07538 23 7.55025 23 12.5V47.5C23 52.4497 23 54.9246 21.4623 56.4623C19.9246 58 17.4497 58 12.5 58C7.55025 58 5.07538 58 3.53769 56.4623C2 54.9246 2 52.4497 2 47.5V12.5Z"
        fill="#F1F4F3" />
</svg>